<svg xmlns="http://www.w3.org/2000/svg" width="76" height="76">
  <g fill="none" fill-rule="evenodd">
  <path fill="#00C86F" fill-rule="nonzero" d="M17.067 0h38.235a17.037 17.037 0 0117.066 17.063v38.242a17.027 17.027 0 01-17.066 17.063H17.067C7.629 72.368 0 64.744 0 55.305V17.079C0 7.624 7.614 0 17.067 0z"/><g fill="#0B111C" fill-rule="nonzero"><path d="M34.834 37.898c-.82 5.278-5.824 9.068-11.983 9.068-7.447 0-12.862-5.368-12.862-12.797 0-.917.091-5.654 3.701-9.248 1.638-1.625 3.338-2.361 4.126-2.707 1.835-.782 3.7-1.098 14.94-1.098h.637c1.274 1.58 2.548 3.158 3.822 4.722-3.7-.015-8.782.06-14.227.361-1.001.06-2.503.165-3.99 1.143-2.062 1.353-3.32 3.79-3.32 6.812 0 4.662 3.048 7.955 7.31 7.955 3.049 0 5.794-2.075 6.537-4.902l5.309.691z"/>
<path d="M41.887 36.259c.197 3.323 3.291 5.88 7.113 5.88 4.536 0 7.797-3.354 7.797-7.955 0-2.797-1.153-5.113-3.05-6.511-1.38-1.023-2.805-1.248-4.565-1.444-2.836-.316-6.886-.586-11.967-.36-1.274-1.581-2.547-3.16-3.822-4.723a376.08 376.08 0 017.16 0c4.155.03 6.248.106 7.31.15 1.805.076 2.7.121 3.018.151 1.198.166 5.658.797 8.797 4.587 2.564 3.097 2.806 6.706 2.806 8.15 0 7.414-5.581 12.797-13.347 12.797-8.13 0-13.514-6.045-12.726-14.406h12.938v3.7l-7.462-.016z"/><g><path d="M53.202 20.8c-.303-.105-.713-.24-1.213-.376-.273-.075-.486-.135-.759-.18-.758-.15-1.365-.165-2.123-.18-.228 0-.531-.016-.91 0V9.913h5.005v10.886z"/><path stroke="#0B111C" stroke-width="2" d="M37.458 53.785c.076.376.47 2.226 2.29 3.309 0 0 1.35.722 3.049.737.197 0 2.79-.09 4.49-2 1.289-1.46 1.38-3.188 1.41-3.91.015-.196 0-.21-.03-2.06-.015-.948-.03-1.715-.03-2.226.637.06 1.41.075 2.305 0 .698-.06 1.32-.18 1.805-.3v4.571c-.015.752-.091 3.022-1.547 5.218-1.077 1.639-2.518 2.571-3.322 3.007a10.865 10.865 0 01-5.49 1.324c-.501-.03-1.73-.12-3.17-.662a9.876 9.876 0 01-2.746-1.594 9.9 9.9 0 01-2.305-2.707 8.726 8.726 0 01-1.047-2.767c1.441.015 2.882.045 4.338.06z"/><path d="M39.733 49.274h-8.327c-1.198 0-2.169 1.113-2.169 2.481v.467c0 1.368.97 2.48 2.17 2.48h8.326c1.198 0 2.17-1.112 2.17-2.48v-.468c-.016-1.368-.987-2.48-2.17-2.48z"/></g></g>
</g>
</svg>
